<svg xmlns="http://www.w3.org/2000/svg" viewBox="0 0 720 420" role="img" aria-label="Snowflake window lights preview">
  <defs>
    <linearGradient id="snowBg" x1="0" x2="1" y1="0" y2="1">
      <stop offset="0" stop-color="#0b1a2a"/>
      <stop offset="0.52" stop-color="#16202b"/>
      <stop offset="1" stop-color="#4b2b15"/>
    </linearGradient>
    <radialGradient id="warmGlow" cx="50%" cy="50%" r="50%">
      <stop offset="0" stop-color="#fff8cf"/>
      <stop offset="0.42" stop-color="#ffd05c"/>
      <stop offset="1" stop-color="#ffb13b" stop-opacity="0"/>
    </radialGradient>
    <filter id="blurGlow" x="-40%" y="-40%" width="180%" height="180%">
      <feGaussianBlur stdDeviation="8"/>
    </filter>
  </defs>
  <rect width="720" height="420" rx="18" fill="url(#snowBg)"/>
  <rect x="0" y="0" width="720" height="420" rx="18" fill="#000" opacity="0.18"/>
  <g opacity="0.55">
    <rect x="72" y="0" width="3" height="420" fill="#f0b55a"/>
    <rect x="188" y="0" width="3" height="420" fill="#f0b55a"/>
    <rect x="315" y="0" width="3" height="420" fill="#f0b55a"/>
    <rect x="458" y="0" width="3" height="420" fill="#f0b55a"/>
    <rect x="602" y="0" width="3" height="420" fill="#f0b55a"/>
  </g>
  <g fill="url(#warmGlow)" filter="url(#blurGlow)" opacity="0.92">
    <circle cx="145" cy="202" r="74"/>
    <circle cx="354" cy="286" r="66"/>
    <circle cx="555" cy="178" r="72"/>
  </g>
  <g stroke="#fff1b0" stroke-width="13" stroke-linecap="round" fill="none">
    <g transform="translate(145 202)">
      <circle r="12" fill="#fff1b0" stroke="none"/>
      <path d="M0 -72v144M-62 -36L62 36M62 -36L-62 36"/>
      <path d="M0 -48l-17 -17M0 -48l17 -17M0 48l-17 17M0 48l17 17M-42 -24l-23 7M-42 -24l-6 -24M42 24l23 -7M42 24l6 24M42 -24l23 7M42 -24l6 -24M-42 24l-23 -7M-42 24l-6 24" stroke-width="8"/>
    </g>
    <g transform="translate(354 286) scale(.88)">
      <circle r="12" fill="#fff1b0" stroke="none"/>
      <path d="M0 -72v144M-62 -36L62 36M62 -36L-62 36"/>
      <path d="M0 -48l-17 -17M0 -48l17 -17M0 48l-17 17M0 48l17 17M-42 -24l-23 7M-42 -24l-6 -24M42 24l23 -7M42 24l6 24M42 -24l23 7M42 -24l6 -24M-42 24l-23 -7M-42 24l-6 24" stroke-width="8"/>
    </g>
    <g transform="translate(555 178) scale(.94)">
      <circle r="12" fill="#fff1b0" stroke="none"/>
      <path d="M0 -72v144M-62 -36L62 36M62 -36L-62 36"/>
      <path d="M0 -48l-17 -17M0 -48l17 -17M0 48l-17 17M0 48l17 17M-42 -24l-23 7M-42 -24l-6 -24M42 24l23 -7M42 24l6 24M42 -24l23 7M42 -24l6 -24M-42 24l-23 -7M-42 24l-6 24" stroke-width="8"/>
    </g>
  </g>
</svg>
