<svg xmlns="http://www.w3.org/2000/svg" viewBox="0 0 720 420" role="img" aria-label="Star window lights preview">
  <defs>
    <linearGradient id="starBg" x1="0" x2="1" y1="0" y2="1">
      <stop offset="0" stop-color="#071326"/>
      <stop offset="0.55" stop-color="#15130f"/>
      <stop offset="1" stop-color="#4a2a12"/>
    </linearGradient>
    <filter id="starGlow" x="-50%" y="-50%" width="200%" height="200%">
      <feGaussianBlur stdDeviation="5"/>
    </filter>
  </defs>
  <rect width="720" height="420" rx="18" fill="url(#starBg)"/>
  <rect x="525" y="0" width="195" height="420" fill="#c49b54" opacity="0.24"/>
  <g stroke="#e8ad4a" stroke-width="3" opacity="0.72">
    <path d="M94 0v245"/>
    <path d="M205 0v170"/>
    <path d="M318 0v295"/>
    <path d="M431 0v215"/>
    <path d="M548 0v315"/>
  </g>
  <g fill="#ffd978" opacity="0.72" filter="url(#starGlow)">
    <circle cx="94" cy="245" r="42"/>
    <circle cx="205" cy="170" r="36"/>
    <circle cx="318" cy="295" r="38"/>
    <circle cx="431" cy="215" r="42"/>
    <circle cx="548" cy="315" r="36"/>
  </g>
  <g fill="none" stroke="#fff0ad" stroke-width="12" stroke-linejoin="round" stroke-linecap="round">
    <path d="M94 196l15 32 35 5-25 25 6 35-31-16-31 16 6-35-25-25 35-5z"/>
    <path d="M205 130l12 26 29 4-21 20 5 29-25-13-26 13 5-29-20-20 28-4z"/>
    <path d="M318 253l13 28 31 4-22 22 5 31-27-15-28 15 6-31-23-22 31-4z"/>
    <path d="M431 166l15 32 35 5-25 25 6 35-31-16-31 16 6-35-25-25 35-5z"/>
    <path d="M548 274l12 26 29 4-21 20 5 29-25-13-26 13 5-29-20-20 28-4z"/>
  </g>
  <path d="M0 330c155 24 279-24 425 2 116 20 203 24 295-18v106H0z" fill="#1c1711" opacity="0.58"/>
</svg>
