<svg xmlns="http://www.w3.org/2000/svg" viewBox="0 0 96 64" fill="none">
  <path d="M22 45c-5 0-9-4-8-9l3-15c1-6 6-10 12-10h38c6 0 11 4 12 10l3 15c1 5-3 9-8 9-4 0-7-2-10-7H32c-3 5-6 7-10 7Z" stroke="#07192b" stroke-width="4" stroke-linecap="round" stroke-linejoin="round"/>
  <g stroke="#07192b" stroke-width="4" stroke-linecap="round">
    <path d="M31 26v13" />
    <path d="M24.5 32.5h13" />
  </g>
  <g fill="#f55625">
    <circle cx="62" cy="26" r="4" />
    <circle cx="72" cy="32" r="4" />
    <circle cx="62" cy="38" r="4" />
  </g>
  <path d="M45 39h8" stroke="#f55625" stroke-width="3.2" stroke-linecap="round" />
</svg>
